<svg width="29" height="29" viewBox="0 0 29 29" fill="none" xmlns="http://www.w3.org/2000/svg">
<path fill-rule="evenodd" clip-rule="evenodd" d="M15.7083 29H13.2916C12.9436 29 12.6113 28.849 12.3818 28.588L11.6858 27.7917H17.3142L16.6182 28.588C16.3886 28.849 16.0563 29 15.7083 29ZM17.9643 25.375C18.311 25.375 18.5926 25.6457 18.5926 25.9792C18.5926 26.3127 18.311 26.5833 17.9643 26.5833H11.0357C10.6889 26.5833 10.4073 26.3127 10.4073 25.9792C10.4073 25.6457 10.6889 25.375 11.0357 25.375H17.9643ZM14.4951 4.83333C18.0996 4.83333 21.75 7.21375 21.75 11.7619C21.75 14.1025 20.5779 16.1385 19.4457 18.1081C18.3497 20.01 17.2187 21.976 17.2175 24.1667H18.427C18.427 20.1961 22.9583 16.7922 22.9583 11.7619C22.9583 6.51775 18.7267 3.625 14.4951 3.625C10.2684 3.625 6.04163 6.51413 6.04163 11.7619C6.04163 16.7922 10.5729 20.1961 10.5729 24.1667H11.78C11.7812 21.976 10.649 20.01 9.55546 18.1081C8.42204 16.1385 7.24996 14.1025 7.24996 11.7619C7.24996 7.21375 10.8955 4.83333 14.4951 4.83333ZM25.8873 14.4493C26.1906 14.587 26.3247 14.9459 26.187 15.2492C26.0492 15.5525 25.6915 15.6878 25.387 15.55L24.2875 15.0498C23.983 14.912 23.8488 14.5544 23.9866 14.2499C24.1243 13.9466 24.4832 13.8125 24.7865 13.9502L25.8873 14.4493ZM3.11263 14.4493C2.80933 14.587 2.67521 14.9459 2.81296 15.2492C2.95071 15.5525 3.30838 15.6878 3.61288 15.55L4.71246 15.0498C5.01696 14.912 5.15108 14.5544 5.01333 14.2499C4.87558 13.9466 4.51671 13.8125 4.21342 13.9502L3.11263 14.4493ZM25.9791 10.875H24.7708C24.4373 10.875 24.1666 10.6043 24.1666 10.2708C24.1666 9.93733 24.4373 9.66667 24.7708 9.66667H25.9791C26.3126 9.66667 26.5833 9.93733 26.5833 10.2708C26.5833 10.6043 26.3126 10.875 25.9791 10.875ZM4.22913 9.66667C4.56263 9.66667 4.83329 9.93733 4.83329 10.2708C4.83329 10.6043 4.56263 10.875 4.22913 10.875H3.02079C2.68729 10.875 2.41663 10.6043 2.41663 10.2708C2.41663 9.93733 2.68729 9.66667 3.02079 9.66667H4.22913ZM24.5509 5.93412C24.8252 5.74321 24.894 5.36742 24.7031 5.09313C24.5134 4.81883 24.1364 4.75117 23.8621 4.94088L22.8701 5.62963C22.5958 5.82054 22.5281 6.19633 22.7178 6.47063C22.9075 6.74492 23.2845 6.81258 23.5588 6.62288L24.5509 5.93412ZM4.44904 5.93412C4.17475 5.74321 4.10588 5.36742 4.29679 5.09313C4.4865 4.81883 4.8635 4.75117 5.13779 4.94088L6.12983 5.62963C6.40413 5.82054 6.47179 6.19633 6.28208 6.47063C6.09238 6.74492 5.71538 6.81258 5.44108 6.62288L4.44904 5.93412ZM20.5598 2.26925C20.7217 1.97804 20.6178 1.6095 20.3265 1.44758C20.0353 1.28446 19.6668 1.38958 19.5049 1.67958L18.9152 2.73446C18.7521 3.02567 18.8572 3.39421 19.1472 3.55733C19.4384 3.71925 19.807 3.61533 19.9701 3.32413L20.5598 2.26925ZM8.44017 2.26925C8.27825 1.97804 8.38217 1.6095 8.67338 1.44758C8.96458 1.28446 9.33313 1.38958 9.49504 1.67958L10.0847 2.73446C10.2478 3.02567 10.1427 3.39421 9.85271 3.55733C9.5615 3.71925 9.19296 3.61533 9.02983 3.32413L8.44017 2.26925ZM15.1041 0.604167C15.1041 0.270667 14.8335 0 14.5 0C14.1665 0 13.8958 0.270667 13.8958 0.604167V1.8125C13.8958 2.146 14.1665 2.41667 14.5 2.41667C14.8335 2.41667 15.1041 2.146 15.1041 1.8125V0.604167Z" fill="black"/>
</svg>
