<svg width="23" height="19" viewBox="0 0 23 19" fill="none" xmlns="http://www.w3.org/2000/svg">
<path fill-rule="evenodd" clip-rule="evenodd" d="M22.8214 0.111737C22.963 0.225215 23.0275 0.404037 22.9891 0.576698L19.163 17.7641C19.128 17.9211 19.0128 18.0508 18.8563 18.1093C18.6997 18.1679 18.5229 18.1474 18.3855 18.0548L13.7565 14.9342L10.412 18.0087C10.2676 18.1415 10.054 18.1791 9.86951 18.1041C9.685 18.0292 9.56522 17.8562 9.56522 17.6648V12.2105L0.348605 9.41452C0.147684 9.35357 0.00838814 9.17883 0.00036476 8.97768C-0.00765865 8.77652 0.117315 8.59217 0.312798 8.5168L22.3128 0.0347329C22.4842 -0.031357 22.6798 -0.00174171 22.8214 0.111737ZM10.5652 12.7828L12.9247 14.3734L10.5652 16.5424V12.7828ZM9.93357 11.3204L20.2803 1.84811L1.97452 8.90588L9.93357 11.3204ZM21.6731 1.89589L10.8489 11.8052L18.3426 16.857L21.6731 1.89589Z" fill="black"/>
</svg>
