<svg width="24" height="23" viewBox="0 0 24 23" fill="none" xmlns="http://www.w3.org/2000/svg">
<path fill-rule="evenodd" clip-rule="evenodd" d="M16.835 0C15.179 0 13.835 1.28332 13.835 2.86361C13.835 4.44389 15.179 5.72721 16.835 5.72721C18.49 5.72721 19.835 4.44389 19.835 2.86361C19.835 1.28332 18.49 0 16.835 0ZM16.835 0.954853C17.938 0.954853 18.835 1.8104 18.835 2.86361C18.835 3.91681 17.938 4.77331 16.835 4.77331C15.732 4.77331 14.835 3.91681 14.835 2.86361C14.835 1.8104 15.732 0.954853 16.835 0.954853ZM7.166 0C5.51 0 4.166 1.28332 4.166 2.86361C4.166 4.44389 5.51 5.72721 7.166 5.72721C8.821 5.72721 10.166 4.44389 10.166 2.86361C10.166 1.28332 8.821 0 7.166 0ZM7.166 0.954853C8.269 0.954853 9.166 1.8104 9.166 2.86361C9.166 3.91681 8.269 4.77331 7.166 4.77331C6.063 4.77331 5.166 3.91681 5.166 2.86361C5.166 1.8104 6.063 0.954853 7.166 0.954853ZM16.814 15.1134C17.508 15.1134 18.045 15.6138 18.091 16.3022C18.141 17.0098 18.263 18.4038 18.371 19.6337L18.527 21.4441C18.547 21.6838 18.691 21.9616 19.035 21.9616C19.439 21.9616 19.49 21.5558 19.495 21.4307L19.967 10.5005C19.989 10.0116 20.668 9.87509 20.904 10.2885L22.549 13.1311C22.667 13.3364 23 13.2505 23 13.0194L21.4 7.60063C21.307 7.28076 20.998 7.05923 20.651 7.05923H3.348C3.002 7.05923 2.693 7.28076 2.599 7.59968L1.009 12.9564C0.987 13.3403 1.373 13.2677 1.451 13.1311L3.096 10.2885C3.34 9.86936 4.012 10.0183 4.033 10.5005L4.504 21.4317C4.515 21.6761 4.65 21.9616 4.994 21.9616C5.323 21.9616 5.491 21.7029 5.512 21.445L5.672 19.5926C5.779 18.3733 5.899 17.0031 5.949 16.3003C5.996 15.6138 6.533 15.1134 7.226 15.1134C7.81 15.1134 8.444 15.5574 8.496 16.3013C8.545 17.0021 8.665 18.3723 8.772 19.5917L8.932 21.4441C8.951 21.6838 9.093 21.9616 9.431 21.9616C9.813 21.9616 9.87 21.5902 9.877 21.4307C9.999 18.6082 10.506 9.69558 10.512 9.60582C10.526 9.35183 10.745 9.15418 11.011 9.15418H12.974C13.24 9.15418 13.459 9.35279 13.473 9.60678C13.479 9.69653 13.967 18.6082 14.09 21.4317C14.102 21.6952 14.264 21.9616 14.599 21.9616C14.943 21.9616 15.089 21.6838 15.107 21.445L15.272 19.5525C15.377 18.3437 15.495 16.9945 15.544 16.3003C15.596 15.5574 16.231 15.1134 16.814 15.1134ZM19.036 22.9165C18.229 22.9165 17.596 22.3283 17.53 21.5176C17.495 21.0832 17.438 20.4262 17.375 19.7139C17.267 18.4783 17.144 17.0775 17.093 16.3652C17.078 16.1447 16.939 16.0683 16.814 16.0683C16.735 16.0683 16.558 16.1427 16.542 16.3643C16.493 17.0623 16.374 18.4172 16.268 19.6318C16.202 20.3756 16.142 21.066 16.105 21.5186C16.04 22.3283 15.407 22.9165 14.601 22.9165C13.775 22.9165 13.127 22.2958 13.09 21.4718C12.984 19.0207 12.601 11.9672 12.499 10.109H11.484C11.379 11.9653 10.982 19.0207 10.876 21.4708C10.838 22.3226 10.245 22.9165 9.432 22.9165C8.629 22.9165 8 22.3283 7.935 21.5176L7.775 19.6709C7.668 18.4459 7.547 17.0699 7.498 16.3652C7.482 16.1427 7.304 16.0683 7.226 16.0683C7.101 16.0683 6.961 16.1456 6.947 16.3633C6.897 17.0699 6.776 18.4468 6.669 19.6719L6.509 21.5186C6.444 22.3283 5.807 22.9165 4.996 22.9165C4.169 22.9165 3.543 22.3082 3.505 21.4718L3.107 12.2431L2.327 13.5923C2.004 14.15 1.239 14.3381 0.754 14.106C0.294 13.9199 0 13.4978 0 13.0194C0 12.9096 0.016 12.8008 0.047 12.6957L1.637 7.33996C1.852 6.61236 2.556 6.10438 3.348 6.10438H20.651C21.444 6.10438 22.148 6.61331 22.363 7.33996L23.953 12.6967C23.984 12.8008 24 12.9096 24 13.0194C24 13.4997 23.703 13.9237 23.241 14.108L23.204 14.1242C22.638 14.3323 21.966 14.0975 21.674 13.5914L20.893 12.2431L20.495 21.4708C20.457 22.3226 19.857 22.9165 19.036 22.9165Z" fill="black"/>
</svg>
